<svg xmlns="http://www.w3.org/2000/svg" viewBox="0 0 64 64" role="img" aria-labelledby="title">
  <title>Weather Lizard</title>
  <rect width="64" height="64" rx="16" fill="#f8fbff" />
  <circle cx="43" cy="17" r="8" fill="#ffc227" />
  <path
    d="M13 38c5-15 18-24 32-19 9 3 15 11 12 20-3 10-13 15-25 13-8-1-15-6-18-12"
    fill="none"
    stroke="#1682f2"
    stroke-linecap="round"
    stroke-linejoin="round"
    stroke-width="6"
  />
  <path
    d="M13 38c-5 2-8 5-9 9 6 0 11-2 15-6M28 27l-7-6M35 49l-5 7M44 28l8-5M49 44l8 4"
    fill="none"
    stroke="#1682f2"
    stroke-linecap="round"
    stroke-linejoin="round"
    stroke-width="4"
  />
</svg>
